# xmcd
#
# Track frame offsets:
#	150
#	20512
#	44578
#	63801
#	82266
#	104279
#	127774
#	148997
#	167564
#	188535
#	208823
#	225313
#	239927
#	261200
#
# Disc length: 3746 seconds
#
# Revision: 0
# Processed by: cddbd v1.5.2PL0 Copyright (c) Steve Scherf et al.
# Submitted via: EasyCDDAExtractor 15.3.0.1
#
DISCID=c60ea00e
DTITLE=Diego Torres - Mis Favoritas
DYEAR=2011
DGENRE=Latin
TTITLE0=Si Tu Te Vas
TTITLE1=Penelope
TTITLE2=Donde Van
TTITLE3=Abriendo Caminos (Duo Con Juan Luis Guerra)
TTITLE4=Tal Cual Es
TTITLE5=Todo Cambia (Y Todo Se Termina)
TTITLE6=Por La Vereda Del Sol (Walking On Sunshine)
TTITLE7=Puede Ser
TTITLE8=Por Ser Como Soy
TTITLE9=Despues De Ti
TTITLE10=Estamos Juntos
TTITLE11=Yo Te Vi (Just One Look)
TTITLE12=No Lo Soñe (Version Acustica)
TTITLE13=Color Esperanza
EXTD=
EXTT0=
EXTT1=
EXTT2=
EXTT3=
EXTT4=
EXTT5=
EXTT6=
EXTT7=
EXTT8=
EXTT9=
EXTT10=
EXTT11=
EXTT12=
EXTT13=
PLAYORDER=
